<?xml version="1.0" standalone="no"?>
<!DOCTYPE svg PUBLIC "-//W3C//DTD SVG 20010904//EN"
 "http://www.w3.org/TR/2001/REC-SVG-20010904/DTD/svg10.dtd">
<svg version="1.0" xmlns="http://www.w3.org/2000/svg"
 width="300.000000pt" height="360.000000pt" viewBox="0 0 300.000000 360.000000"
 preserveAspectRatio="xMidYMid meet">
<metadata>
Created by potrace 1.16, written by Peter Selinger 2001-2019
</metadata>
<g transform="translate(0.000000,360.000000) scale(0.062241,-0.090000)"
fill="#000000" stroke="none">
<path d="M2620 3709 c-578 -18 -1061 -38 -1110 -45 -41 -7 -86 -37 -95 -64 -4
-12 -21 -24 -44 -30 -21 -5 -45 -18 -54 -28 -26 -29 -33 -122 -25 -317 19
-426 26 -914 24 -1725 l-1 -865 28 -58 c16 -32 40 -71 54 -87 35 -42 165 -131
248 -170 l69 -33 321 6 c305 7 719 24 1110 48 373 22 394 24 422 46 32 23 46
65 37 113 -3 19 -9 695 -13 1501 l-6 1465 -29 44 c-34 52 -109 126 -147 146
-16 8 -76 26 -134 39 -117 28 -179 29 -655 14z m320 -549 c0 -14 -4 -42 -9
-62 l-9 -38 68 0 68 0 -19 -62 c-10 -35 -19 -64 -19 -66 0 -2 63 0 140 4 81 4
140 3 140 -2 0 -13 -39 -230 -106 -596 l-57 -317 -218 -74 -218 -74 -222 52
-222 52 -73 339 c-40 186 -84 391 -97 454 -14 63 -23 117 -20 120 2 3 65 7
138 10 73 3 136 8 139 11 3 3 -3 29 -14 57 -11 29 -20 57 -20 62 0 6 31 10 70
10 39 0 70 2 70 5 0 2 -7 30 -15 61 -8 32 -14 59 -12 60 2 2 456 20 500 20 12
0 17 -8 17 -26z m-1414 -364 c50 -24 94 -52 98 -61 9 -24 8 -285 -1 -285 -5 0
-65 28 -135 62 l-128 63 1 50 c0 40 2 46 10 30 6 -11 35 -31 65 -44 29 -13 54
-28 54 -33 0 -5 4 -7 9 -3 5 3 35 -9 65 -25 45 -25 56 -28 56 -15 0 10 -39 34
-107 68 -165 81 -153 68 -153 168 0 47 3 88 6 91 7 8 41 -6 160 -66z m91 -369
c9 0 13 -16 13 -48 l0 -48 -47 27 c-27 14 -49 30 -51 34 -2 4 -10 8 -18 8 -25
0 -154 74 -154 88 0 9 9 7 29 -7 35 -25 41 -26 41 -6 0 9 -16 23 -35 32 -19 9
-35 23 -35 30 0 8 47 -11 122 -49 67 -34 128 -61 135 -61z m-213 -7 c6 0 214
-98 225 -107 2 -1 6 -278 8 -615 l4 -613 -21 23 c-11 12 -44 34 -72 48 -48 25
-52 25 -64 9 -14 -18 -9 -70 8 -92 11 -13 116 -73 129 -73 4 0 10 8 12 18 3 9
5 -17 6 -58 0 -41 -3 -81 -7 -88 -7 -9 -36 3 -118 48 -60 33 -117 70 -126 81
-16 19 -18 47 -18 255 l0 235 22 -21 c12 -11 25 -20 29 -20 4 0 14 -3 23 -6
33 -12 14 12 -29 39 -37 23 -45 34 -45 58 0 16 2 29 5 29 11 0 180 -93 186
-102 4 -6 9 -6 14 2 4 7 1 18 -6 25 -21 19 -189 106 -197 101 -4 -2 -7 18 -7
44 0 42 2 47 15 35 20 -17 225 -125 239 -125 17 0 3 24 -22 36 -12 6 -69 36
-127 66 l-105 54 -1 117 c-1 85 2 115 10 108 6 -4 64 -36 129 -70 85 -45 117
-57 117 -46 0 13 -148 97 -230 130 -16 6 -26 19 -28 35 -2 19 -1 22 7 10 5 -8
28 -24 49 -35 22 -11 77 -39 122 -62 92 -48 90 -47 90 -33 0 8 -48 38 -67 42
-5 0 -13 8 -20 17 -7 9 -13 12 -13 8 0 -5 -12 0 -27 10 -16 10 -54 31 -85 48
-39 20 -58 35 -58 48 0 17 1 17 16 2 19 -19 108 -65 126 -65 21 0 -19 33 -79
65 -31 17 -59 36 -61 43 -4 12 237 -105 249 -122 4 -4 9 -4 13 2 5 8 -39 47
-46 40 -2 -2 -16 6 -33 18 -16 11 -57 33 -90 50 -33 16 -63 33 -66 38 -4 5
-12 5 -18 2 -7 -5 -11 2 -11 19 0 23 2 25 15 12 17 -18 230 -127 247 -127 17
0 -10 26 -53 50 -19 10 -73 38 -121 62 -63 31 -87 48 -88 62 0 18 1 18 18 3
22 -20 234 -128 240 -123 8 9 -11 28 -42 42 -44 21 -167 87 -193 104 -13 8
-23 22 -23 30 0 11 2 12 8 3 8 -12 120 -73 134 -73 4 0 30 -14 58 -31 51 -31
74 -33 50 -4 -7 9 -66 42 -132 73 -93 45 -118 61 -118 77 0 11 3 15 8 9 8 -11
96 -54 111 -54 5 0 11 -4 13 -8 4 -11 129 -74 135 -68 10 10 -42 44 -139 91
-57 28 -105 53 -106 58 -2 4 -8 5 -13 1 -5 -3 -9 2 -9 10 0 9 1 16 3 16 1 0
59 -29 130 -64 121 -60 161 -71 117 -31 -11 10 -20 15 -20 10 0 -4 -12 1 -27
11 -16 10 -67 38 -115 62 -49 24 -88 48 -88 53 0 14 2 13 135 -55 81 -41 125
-58 125 -50 0 13 -175 109 -232 128 -18 6 -28 16 -28 29 0 19 1 19 18 4 10
-10 22 -17 26 -17z m2069 -556 c12 -13 -6 -34 -24 -29 -29 10 -35 -22 -10 -55
11 -16 21 -42 21 -58 0 -61 -76 -116 -119 -86 -19 14 -23 13 -37 0 -21 -22
-55 -20 -61 2 -4 16 -9 14 -38 -15 -20 -20 -42 -33 -52 -31 -20 4 -22 33 -8
151 7 60 11 68 32 73 13 4 27 4 30 0 4 -4 0 -42 -9 -87 -10 -54 -11 -78 -4
-76 17 5 59 86 72 137 9 35 16 46 34 48 25 4 25 7 4 -128 -7 -44 -6 -45 12
-28 19 16 20 16 32 -3 16 -24 55 -22 60 4 2 9 -8 31 -23 49 -39 46 -23 97 40
124 35 15 40 16 48 8z m-1272 -34 c26 -14 24 -52 -4 -78 l-24 -22 -11 25 c-9
20 -19 25 -46 25 -42 0 -75 -37 -101 -115 -21 -64 -25 -176 -6 -198 25 -31 80
-19 132 30 23 21 27 22 33 8 10 -26 -11 -53 -67 -85 -69 -40 -136 -42 -165 -5
-28 35 -36 94 -22 162 23 111 82 197 162 237 56 28 88 32 119 16z m899 -50
c23 -23 24 -39 10 -92 -20 -70 -97 -136 -145 -124 -68 17 -40 163 41 217 37
24 69 24 94 -1z m-170 -30 c0 -28 -31 -43 -47 -22 -11 16 -14 15 -34 -5 -17
-17 -24 -37 -27 -83 -4 -57 -3 -60 19 -60 12 0 33 10 46 22 25 23 37 21 27 -5
-9 -25 -69 -58 -105 -59 -37 -1 -49 14 -49 65 0 81 70 167 135 167 28 0 35 -4
35 -20z m-182 -17 c-2 -12 -11 -17 -25 -15 -31 4 -38 -16 -16 -46 30 -42 34
-61 19 -96 -23 -55 -103 -88 -124 -51 -7 14 -11 13 -27 -5 -25 -28 -53 -26
-61 6 l-7 26 -18 -28 c-10 -15 -30 -34 -45 -42 -25 -13 -29 -13 -41 4 -7 10
-11 25 -9 33 3 9 10 51 17 94 10 58 18 81 32 89 36 19 42 -4 23 -88 -9 -42
-14 -80 -10 -83 14 -15 71 94 77 149 4 36 32 59 50 41 8 -8 8 -27 -1 -69 -7
-32 -12 -69 -11 -83 l0 -24 16 23 c8 12 20 22 26 22 6 0 7 -3 4 -6 -13 -13 14
-45 36 -42 30 4 33 32 8 64 -31 40 -28 87 10 118 36 31 82 36 77 9z m-384 -69
c35 -34 13 -126 -44 -181 -41 -40 -75 -49 -106 -28 -51 33 -15 172 54 209 36
20 77 20 96 0z m472 -193 c32 12 51 -1 71 -48 16 -39 27 -43 21 -9 -5 24 -4
25 23 10 30 -15 36 -28 18 -39 -7 -5 -5 -14 4 -29 13 -19 13 -26 0 -51 l-14
-30 19 24 c10 13 19 39 20 59 2 45 16 61 31 34 6 -10 7 -23 3 -27 -4 -4 4 -4
18 1 44 16 126 11 147 -8 19 -17 21 -17 48 12 72 75 194 59 240 -30 22 -43 19
-160 -4 -160 -4 0 -5 29 -3 63 5 78 -12 117 -62 141 -67 32 -152 8 -178 -49
-11 -25 -28 -34 -28 -15 0 20 -63 42 -105 37 -104 -11 -153 -110 -106 -214 11
-23 29 -51 41 -63 41 -41 11 -33 -35 9 -25 23 -61 49 -80 58 -19 9 -35 23 -35
30 0 7 -4 13 -8 13 -27 0 3 -49 61 -101 l66 -60 -25 -36 c-24 -35 -27 -54 -24
-123 1 -33 -2 -37 -44 -58 -93 -44 -192 -64 -359 -69 -99 -4 -186 -1 -235 6
-235 37 -397 118 -423 213 -13 50 3 77 74 123 25 17 48 38 50 48 6 19 47 23
78 6 11 -5 32 -12 47 -14 15 -2 40 -8 56 -14 22 -9 26 -15 18 -23 -16 -16 -15
-48 2 -48 9 0 12 8 8 25 -4 22 -1 25 27 25 18 0 31 -5 31 -12 0 -32 -14 -57
-33 -63 -19 -6 -20 -8 -5 -12 10 -2 32 6 49 18 24 17 33 19 39 9 4 -7 12 -10
18 -6 5 3 16 -2 23 -10 12 -15 14 -15 19 5 5 21 5 21 39 -7 27 -22 31 -31 21
-37 -9 -5 -15 -4 -18 3 -2 7 -8 12 -14 12 -6 0 -5 -7 3 -16 14 -17 11 -21 -46
-50 l-30 -15 32 26 c19 15 30 32 26 40 -3 8 -9 12 -14 9 -5 -3 -7 -8 -5 -12 2
-4 -7 -8 -20 -8 -17 -1 -24 3 -24 16 0 12 -8 18 -25 18 -14 0 -25 -5 -25 -10
0 -6 9 -8 20 -5 16 4 20 0 20 -20 0 -13 4 -21 10 -18 6 3 10 4 10 1 0 -3 -18
-19 -40 -35 -21 -15 -38 -30 -36 -32 3 -2 -9 -5 -25 -6 -16 -1 -29 2 -29 8 0
6 -5 7 -10 4 -6 -4 -5 -11 4 -20 15 -15 66 -11 77 7 4 6 12 7 18 4 6 -4 11 -1
11 7 0 10 8 13 24 10 13 -3 27 0 31 7 5 7 13 4 26 -11 10 -12 19 -25 19 -30 0
-9 57 -6 66 4 13 13 -5 20 -20 8 -21 -18 -36 -5 -36 30 0 52 82 116 86 68 1
-8 2 -29 3 -48 1 -33 1 -33 26 -17 23 15 26 15 31 1 4 -9 12 -14 19 -11 7 2
24 -2 39 -9 29 -15 48 -11 85 17 13 10 31 18 40 18 12 0 13 -2 3 -8 -8 -5 7
-9 36 -10 43 -1 52 3 69 26 l20 28 -48 47 c-29 29 -49 42 -49 33 0 -9 -6 -13
-14 -10 -11 4 -13 0 -9 -15 4 -15 1 -21 -12 -21 -14 0 -16 6 -12 29 6 29 -15
61 -41 61 -7 0 -12 7 -12 16 0 11 6 15 20 11 11 -3 18 -1 14 4 -3 5 -12 9 -21
9 -13 0 -12 3 4 18 11 9 18 23 15 30 -2 7 1 19 7 26 8 10 8 16 -3 25 -10 8
-16 9 -21 1 -8 -12 -25 -13 -25 -1 0 17 44 20 62 4 14 -12 21 -14 30 -5 8 8 3
18 -18 37 -18 16 -22 25 -12 21 10 -3 20 -1 23 4 4 6 -8 10 -25 10 -17 0 -42
7 -55 16 -14 9 -25 15 -26 13 -7 -34 -6 -36 16 -31 26 4 43 -14 27 -30 -15
-15 -69 8 -83 35 -8 14 -8 18 0 13 7 -5 8 -1 4 10 -5 14 -3 16 11 11 9 -4 15
-3 12 1 -8 13 -89 7 -94 -7 -3 -8 3 -11 14 -9 13 2 20 -4 22 -19 3 -18 -2 -23
-17 -23 -12 0 -21 6 -21 16 0 11 -6 14 -20 9 -26 -8 -25 3 2 32 l21 23 -44 2
c-37 1 -39 2 -11 5 20 3 38 13 48 28 14 22 102 81 108 73 2 -1 9 -13 15 -25
17 -33 40 -30 33 4 l-5 27 29 -23 c16 -13 30 -18 32 -12 2 6 8 8 14 5 6 -4 8
1 6 11 -2 12 -13 19 -30 19 -15 1 -33 8 -40 15 -11 11 -7 13 20 9 18 -3 32 0
32 6 0 5 9 0 20 -12 17 -18 25 -20 46 -11z m572 -163 c0 -19 -6 -37 -16 -45
-12 -8 -13 -12 -4 -13 7 0 11 -4 7 -9 -3 -6 -13 -9 -23 -9 -9 0 -46 -5 -82
-12 -36 -6 -74 -13 -85 -14 -11 -2 -30 -6 -42 -10 -19 -6 -23 -4 -23 16 -1 20
-2 21 -11 5 -5 -9 -8 -21 -4 -26 8 -15 -8 -20 -32 -10 -13 5 -23 17 -23 28 0
11 -5 23 -10 26 -13 8 3 31 31 46 22 11 49 2 49 -18 0 -8 5 -11 10 -8 6 3 10
-4 11 -17 l1 -23 7 24 c10 36 33 40 26 4 -6 -27 -5 -27 9 5 10 21 22 32 37 32
18 0 20 -4 15 -26 -5 -17 -3 -23 4 -19 5 3 10 19 10 35 0 16 5 32 11 35 17 11
19 1 10 -33 -5 -18 -6 -32 -1 -32 4 0 11 18 15 40 9 53 24 51 19 -2 l-4 -43
13 37 c17 53 31 60 23 13 l-7 -40 19 30 c10 17 21 38 25 48 9 25 14 21 15 -15z
m-144 -120 c-6 -19 -4 -21 7 -11 8 6 27 14 42 17 20 3 27 1 28 -12 0 -13 2
-12 9 4 6 14 18 21 38 22 28 1 29 -1 18 -24 -12 -27 -26 -32 -26 -9 0 8 -4 15
-10 15 -5 0 -10 -9 -10 -20 0 -15 -7 -20 -29 -20 -16 0 -41 -4 -56 -10 -22 -8
-27 -7 -35 13 -6 16 -9 18 -9 5 -1 -19 -36 -42 -51 -33 -5 3 -19 -4 -31 -16
-14 -14 -24 -17 -28 -11 -4 6 -21 9 -39 7 -30 -4 -32 -2 -26 18 9 31 24 45 24
22 0 -18 1 -18 13 -2 7 10 29 19 50 21 22 2 44 11 53 22 12 15 15 16 11 3 -4
-13 -1 -15 16 -11 12 3 26 11 30 19 13 21 19 15 11 -9z m-624 -53 c0 -8 22
-32 49 -52 50 -38 64 -63 36 -63 -8 0 -15 4 -15 9 0 5 -7 11 -15 15 -23 8 4
-31 29 -42 14 -6 16 -11 8 -16 -15 -9 -84 64 -77 82 3 7 0 10 -5 7 -6 -3 -13
1 -16 9 -4 10 -18 16 -36 16 -18 0 -27 -4 -23 -10 4 -6 15 -8 25 -5 22 7 40
-19 33 -46 -3 -11 0 -19 6 -19 6 0 11 5 11 11 0 8 5 7 15 -1 12 -10 13 -15 4
-21 -19 -11 49 -42 77 -35 20 5 24 3 24 -16 0 -19 -2 -20 -10 -8 -9 13 -11 13
-20 0 -5 -8 -10 -21 -10 -27 0 -7 -3 -13 -7 -14 -5 0 -28 -3 -51 -5 -48 -6
-98 17 -87 39 4 7 -1 3 -10 -8 -14 -17 -17 -18 -25 -5 -6 8 -7 21 -5 29 3 8 0
18 -7 23 -10 6 -7 10 10 14 28 8 29 34 0 34 -24 0 -68 36 -68 57 0 7 7 13 16
13 8 0 36 16 61 35 36 28 49 33 64 24 11 -5 19 -16 19 -24z m840 -42 c0 -101
-45 -180 -118 -204 -22 -8 -91 -13 -172 -13 -109 -1 -142 -4 -169 -19 -44 -22
-54 -10 -47 56 11 105 79 147 244 153 120 4 166 15 213 48 19 13 37 25 42 25
4 1 7 -20 7 -46z m-2058 -233 c7 -11 23 -20 35 -20 13 0 28 -8 34 -19 7 -11
20 -16 30 -14 11 3 23 -3 31 -16 7 -12 21 -21 32 -21 28 0 45 -29 46 -78 l0
-42 -25 16 c-14 9 -28 14 -32 10 -7 -6 35 -46 49 -46 4 0 8 -22 8 -50 0 -27
-4 -50 -10 -50 -5 0 -10 5 -10 10 0 6 -4 10 -10 10 -18 0 -11 -29 10 -42 23
-14 27 -48 7 -48 -8 0 -22 9 -31 19 -10 11 -24 17 -31 15 -7 -3 -21 5 -31 18
-11 13 -26 22 -36 20 -9 -2 -23 7 -31 19 -9 11 -20 18 -26 15 -6 -4 -19 2 -31
14 -18 18 -20 33 -20 130 l0 110 25 -16 c39 -26 43 -7 5 24 -20 17 -30 33 -26
40 11 18 24 15 38 -8z m823 -190 c75 -25 137 -40 168 -40 44 0 48 -2 37 -15
-12 -14 -10 -15 16 -11 29 6 100 -11 90 -21 -3 -3 -20 0 -38 6 -30 10 -31 9
-14 -4 11 -8 24 -15 30 -15 5 0 6 -3 3 -7 -4 -3 -2 -12 4 -20 9 -9 8 -13 0
-13 -15 0 -14 -27 2 -33 8 -4 7 -5 -3 -6 -26 0 -55 15 -55 29 0 7 -6 15 -14
18 -9 3 -11 0 -7 -9 4 -8 -8 2 -26 22 -18 19 -46 43 -63 52 -51 28 -157 67
-166 61 -5 -3 -9 0 -9 5 0 6 -8 11 -17 11 -15 0 -16 -2 -3 -10 18 -12 2 -12
-25 0 -14 6 -16 9 -5 10 8 1 -3 8 -25 15 -24 8 -32 14 -20 14 12 1 75 -17 140
-39z m-354 -122 c32 -24 77 -27 274 -18 121 6 179 -41 178 -143 -1 -54 -6 -65
-25 -50 -26 21 -78 24 -164 9 -168 -30 -239 -15 -276 56 -18 35 -37 168 -24
168 4 0 20 -10 37 -22z"/>
<path d="M2680 2655 c-151 -7 -281 -14 -287 -14 -10 -1 -13 -41 -13 -165 l0
-164 39 -35 c127 -115 432 -98 554 30 l28 30 -3 164 c-3 156 -4 164 -23 165
-11 1 -144 -4 -295 -11z m258 -73 c-14 -2 -32 -10 -38 -17 -20 -24 18 -31 53
-11 52 29 43 7 -18 -49 -71 -64 -109 -83 -135 -67 -13 7 -20 8 -28 0 -8 -8
-15 -8 -26 1 -12 10 -21 9 -45 -4 -17 -8 -31 -20 -31 -26 0 -25 -46 -73 -87
-91 -30 -13 -53 -17 -78 -12 -48 9 -54 24 -10 24 48 0 94 21 129 59 23 24 26
31 13 31 -21 0 -22 29 -3 56 13 16 18 17 36 6 22 -14 24 -13 86 33 9 6 20 1
38 -18 26 -28 42 -33 65 -18 9 6 10 14 3 27 -13 24 -1 50 36 81 21 18 29 20
46 10 20 -11 20 -12 -6 -15z"/>
</g>
</svg>
